{"title":"[MARATHI] Kokanastha 2013 DTHRip XviD 1CD (DDR)","uid":8726843,"size":734499934,"categoryP":"video","categoryS":"movies","magnet":"?xt=urn:btih:4ac68c40fb47a87e9c72aded4960e3b077447757&amp;dn=%5BMARATHI%5D+Kokanastha+2013+DTHRip+XviD+1CD+%28DDR%29&amp;tr=udp%3A%2F%2Ftracker.openbittorrent.com%3A80&amp;tr=udp%3A%2F%2Fopen.demonii.com%3A1337&amp;tr=udp%3A%2F%2Ftracker.coppersurfer.tk%3A6969&amp;tr=udp%3A%2F%2Fexodus.desync.com%3A6969","seeders":1,"leechers":0,"uploader":"SJonam","files":1,"time":1374523728,"description":" &lt;a href=&quot;http://desibbrg.org/images/66409291487252379154.png&quot; rel=&quot;nofollow&quot; target=&quot;_NEW&quot;&gt;http://desibbrg.org/images/66409291487252379154.png&lt;/a&gt; &lt;a href=&quot;\nhttp://desibbrg.org/images/60240622346153241094.png&quot; rel=&quot;nofollow&quot; target=&quot;_NEW&quot;&gt;\nhttp://desibbrg.org/images/60240622346153241094.png&lt;/a&gt; &lt;a href=&quot;\nhttp://desibbrg.org/images/71591162958495453024.png&quot; rel=&quot;nofollow&quot; target=&quot;_NEW&quot;&gt;\nhttp://desibbrg.org/images/71591162958495453024.png&lt;/a&gt; &lt;a href=&quot;\nhttp://desibbrg.org/images/04776565231807932817.png&quot; rel=&quot;nofollow&quot; target=&quot;_NEW&quot;&gt;\nhttp://desibbrg.org/images/04776565231807932817.png&lt;/a&gt; &lt;a href=&quot;\nhttp://desibbrg.org/images/67799364490455335817.png&quot; rel=&quot;nofollow&quot; target=&quot;_NEW&quot;&gt;\nhttp://desibbrg.org/images/67799364490455335817.png&lt;/a&gt;\n\nMedia Info - \nVideo\nID : 0\nFormat : MPEG-4 Visual\nFormat profile : Advanced Simple@L5\nFormat settings, BVOP : 1\nFormat settings, QPel : No\nFormat settings, GMC : No warppoints\nFormat settings, Matrix : Custom\nCodec ID : XVID\nCodec ID/Hint : XviD\nDuration : 2h 15mn\nBit rate : 646 Kbps\nWidth : 608 pixels\nHeight : 288 pixels\nDisplay aspect ratio : 2.2:1\nFrame rate : 25.000 fps\nColor space : YUV\nChroma subsampling : 4:2:0\nBit depth : 8 bits\nScan type : Progressive\nCompression mode : Lossy\nBits/(Pixel*Frame) : 0.148\nStream size : 625 MiB (89%)\nWriting library : XviD 1.2.1 (UTC 2008-12-04)\n\nAudio\nID : 1\nFormat : MPEG Audio\nFormat version : Version 2\nFormat profile : Layer 3\nMode : Joint stereo\nMode extension : MS Stereo\nCodec ID : 55\nCodec ID/Hint : MP3\nDuration : 2h 15mn\nBit rate mode : Variable\nBit rate : 64.0 Kbps\nChannel(s) : 2 channels\nSampling rate : 24.0 KHz\nCompression mode : Lossy\nStream size : 62.7 MiB (9%)\nAlignment : Aligned on interleaves\nInterleave, duration : 24 ms (0.60 video frame)\nInterleave, preload duration : 160 ms\nTitle : kokanastha Tc0 L2 2ch 48 384 DELAY 0ms\nWriting library : LAME3.99r\nEncoding settings : -m j -V 4 -q 2 -lowpass 11 --abr 64\n\nRipper : IndianHacker\n\nSeeding 24x7... Extreme Seeding...\n\n\nEnjoy!","torrent":{"xt":"urn:btih:4ac68c40fb47a87e9c72aded4960e3b077447757","amp;dn":"%5BMARATHI%5D+Kokanastha+2013+DTHRip+XviD+1CD+%28DDR%29","amp;tr":["udp%3A%2F%2Ftracker.openbittorrent.com%3A80","udp%3A%2F%2Fopen.demonii.com%3A1337","udp%3A%2F%2Ftracker.coppersurfer.tk%3A6969","udp%3A%2F%2Fexodus.desync.com%3A6969"],"infoHash":"4ac68c40fb47a87e9c72aded4960e3b077447757","infoHashBuffer":{"type":"Buffer","data":[74,198,140,64,251,71,168,126,156,114,173,237,73,96,227,176,119,68,119,87]},"announce":[],"urlList":[]}}